<?xml version="1.0" encoding="UTF-8"?>
<svg id="Capa_1" xmlns="http://www.w3.org/2000/svg" version="1.1" viewBox="0 0 107 104.9">
  <!-- Generator: Adobe Illustrator 29.8.5, SVG Export Plug-In . SVG Version: 2.1.1 Build 2)  -->
  <defs>
    <style>
      .st0 {
        fill: #3f4958;
      }

      .st1 {
        fill: #384453;
      }

      .st2 {
        fill: #00b6bf;
      }

      .st3 {
        fill: #00949f;
      }

      .st4 {
        fill: #3d4857;
      }

      .st5 {
        fill: #fafbfb;
      }

      .st6 {
        fill: #ffd69f;
      }

      .st7 {
        fill: #3a4553;
      }
    </style>
  </defs>
  <path class="st7" d="M19.34,47.48c-.5.69-.87.63-1.55.2-3.19-2.03-6.67-3.59-9.82-5.7-.45-.3-1.05-.8-1.56-.2-.54.64.19.99.53,1.41.04.04.08.08.13.12,2.65,2.09,4.95,4.57,7.53,6.73,1.43,1.19,2.66,2.48,3.77,3.95,1.73,2.28,3.98,4.06,6.42,5.57.79.49.86.9.37,1.63-1.32,1.95-2.58,3.93-3.85,5.9-.28.43-.55.87-.8,1.32-.18.33-.15.66.14.94.37.35.77.25,1.1-.01.4-.32.76-.7,1.12-1.07,1.82-1.84,3.62-3.7,5.44-5.54.39-.4.74-.86,1.48-.52,2.93,1.34,6,2.28,9.11,3.09.65.17.88.41.66,1.07-.96,3-1.49,6.1-1.99,9.2-.24,1.46-.55,2.92-.57,4.41,0,.31.12.61.4.71.3.12.57-.09.72-.35.26-.44.51-.89.71-1.37,1.6-3.79,3.16-7.6,4.21-11.58.16-.6.18-1.28,1.17-1.1,2.71.5,5.46.59,8.21.67.95.03,1.19.45,1.22,1.27.06,1.94.18,3.88.25,5.83.19,5.03.73,10.03,1.44,15.02.03.23.05.46.12.67.15.45.37.88.96.82.48-.05.67-.41.74-.83.06-.39.1-.79.12-1.19.34-5.53.42-11.07.07-16.61-.09-1.37-.08-2.74-.12-4.11-.02-.51.1-.87.74-.92,2.68-.2,5.36-.38,8-.84.61-.11.86.2,1,.69.15.49.32.98.44,1.49.95,4,2.88,7.61,4.67,11.28.31.64.64,1.59,1.55,1.38.98-.23.72-1.22.6-1.9-.58-3.15-.69-6.37-1.8-9.43-.41-1.13-.72-2.3-1.13-3.43-.27-.74-.18-1.14.69-1.36,4.21-1.05,8.18-2.65,11.84-4.94.63-.39,1-.28,1.44.28,1.45,1.8,2.93,3.58,4.45,5.33.46.53,1.01,1.42,1.84.91.84-.52.22-1.38-.07-2.01-.98-2.14-1.99-4.28-3.08-6.37-.4-.77-.27-1.21.34-1.75,1.65-1.45,3.09-3.09,4.35-4.88.43-.61.89-1.24.8-2.03-.11-1.02.38-1.73,1.04-2.42,2.05-2.18,3.93-4.5,5.44-7.08.31-.52.76-1.02.53-1.78-.72.03-1.22.41-1.75.73-2.54,1.53-4.79,3.42-6.93,5.43-.49.46-.87.82-1.61.27-2.37-1.78-4.74-3.57-7.27-5.13-.41-.26-.51-.53-.29-.99,1.38-2.89,1.82-6.13,3.36-8.97.27-.49.59-1.14-.12-1.51-.83-.43-1.16.32-1.4.86-1.27,2.85-3.5,5.1-4.97,7.82-.29.53-.62.57-1.13.33-2.75-1.29-5.6-2.33-8.52-3.2-.46-.14-.67-.34-.54-.86.77-2.93.56-6.03,1.58-8.92.21-.58.33-1.22.21-1.86-.1-.53-.67-.69-1.06-.32-.43.42-.55,1-.75,1.53-.61,1.6-.9,3.31-1.77,4.81-.67,1.14-1.24,2.33-1.57,3.6-.18.68-.43.98-1.18.83-3.05-.61-6.13-.86-9.24-.87-.64,0-.95-.19-1.02-.85-.5-4.26-1.62-8.43-2.25-12.68-.06-.39-.11-.8-.23-1.17-.11-.34-.35-.61-.77-.54-.33.05-.51.29-.54.59-.04.51-.04,1.02-.04,1.54-.04,4.17-.09,8.34-.09,12.51,0,.6-.24.81-.79.87-.99.1-1.97.2-2.95.36-1.82.3-3.64.64-5.58.99-.06-1.5-.75-2.71-1.29-3.97-1.05-2.42-2.46-4.69-3.39-7.17-.08-.21-.2-.42-.32-.61-.2-.32-.5-.5-.88-.37-.39.13-.47.47-.45.83.01.23.06.45.13.67,1.15,3.83,1.28,7.88,2.9,11.66-3.12,1.1-6.06,2.34-8.78,4.01-.67.41-.97.16-1.39-.38-2.27-2.94-5.16-5.33-7.61-8.11-.39-.44-.89-.89-1.51-.49-.74.49-.29,1.1,0,1.66.03.05.06.1.09.15,2.22,3.17,3.9,6.67,6.44,9.84-2.47,1.97-4.53,4.13-6.29,6.55ZM68.21,41.39c8.08,1.36,15.33,4.24,22.07,8.59-.64,1.18-1.45,1.91-2.26,2.64-2.33,2.08-4.95,3.79-7.77,5.14-6.32,3.02-12.99,4.92-20,5.73-.4.05-.81.03-1.22.04,9.48-2.99,14.95-12.45,9.18-22.14ZM38.58,55.31c2.18,4.38,5.97,6.9,10.7,8.23-5.98-.21-11.76-1.23-17.33-3.32-3.58-1.34-6.96-3.06-9.87-5.52-3.78-3.2-3.51-2.54,0-5.21,5.13-3.9,11.15-5.99,17.83-7.54-2.91,4.47-3.58,8.84-1.33,13.36ZM27.12,42.13c2.1-1.73,4.44-3.14,6.89-4.31,4.14-1.98,8.5-3.38,13.08-4.13,3.95-.65,7.91-.63,11.87-.3,4.02.34,7.99,1.07,11.79,2.47,5.55,2.04,10.87,4.56,15.61,8.13.89.67,1.89,1.25,2.26,2.51-1.55-.74-3.13-1.42-4.63-2.25-4.88-2.7-10.26-3.77-15.66-4.82-6.24-1.22-12.57-1.21-18.86-1.13-5.14.07-10.18,1.17-15.03,2.87-3.62,1.27-7.13,2.79-10.34,4.91-.79.52-1.45,1.27-2.48,1.45,1.38-2.27,3.51-3.77,5.49-5.41ZM66.67,43.58c2.23,3.75,1.58,8.58-1.45,11.94-5.64,6.26-15.94,7.15-22.25,1.69-4.53-3.92-5.38-10.02-1.31-15.26.36-.47.87-.57,1.37-.64,1.66-.26,3.33-.46,5.03-.69.02.71-.56.9-.89,1.24-2.86,2.93-3.57,6.87-1.81,10.24,1.81,3.48,6.24,5.44,10.1,4.51,2.59-.63,4.67-2.03,6.37-3.97,2.79-3.18,2.62-7.62.13-10.74-.28-.35-.71-.6-.82-1.13,2.8-.76,4.31.74,5.55,2.82ZM55.62,55.25c-1.33.17-2.62.23-3.98-.04-2.98-.59-4.98-2.22-5.93-5-.97-2.85.03-5.31,1.93-7.4,1.83-2.02,4.19-2.92,7.02-2.79,2.04.09,3.91.41,5.52,1.78,1.74,1.48,2.69,3.27,2.72,4.63-.11,4.93-3.21,8.31-7.27,8.83Z"/>
  <path class="st4" d="M58.86,96.66c-.04,1.21-.97,2.1-2.11,2.04-1.3-.07-2.37-1.15-2.34-2.34.03-1.17.93-1.92,2.24-1.87,1.34.06,2.26.95,2.21,2.17Z"/>
  <path class="st7" d="M34.09,15.07c1.09.06,1.84.88,1.78,1.93-.07,1.17-1.25,2.14-2.54,2.09-1.15-.05-1.99-.95-1.9-2.03.09-1.08,1.39-2.05,2.66-1.99Z"/>
  <path class="st4" d="M53.42,9.85c0,1.17-.88,2.1-2.01,2.13-1.15.03-1.95-.76-1.94-1.93,0-1.23.99-2.21,2.17-2.15,1.01.06,1.78.9,1.78,1.95Z"/>
  <path class="st0" d="M72.58,19.2c-.91-.06-1.62-.86-1.55-1.75.08-.92,1-1.63,1.97-1.51.89.1,1.5.78,1.46,1.63-.05.93-.92,1.7-1.88,1.64Z"/>
  <path class="st5" d="M59.03,63.53c9.48-2.99,14.95-12.45,9.18-22.14,8.08,1.36,15.33,4.24,22.07,8.59-.64,1.18-1.45,1.91-2.26,2.64-2.33,2.08-4.95,3.79-7.77,5.14-6.32,3.02-12.99,4.92-20,5.73-.4.05-.81.03-1.22.04Z"/>
  <path class="st5" d="M39.91,41.95c-2.91,4.47-3.58,8.84-1.33,13.36,2.18,4.38,5.97,6.9,10.7,8.23-5.98-.21-11.76-1.23-17.33-3.32-3.58-1.34-6.96-3.06-9.87-5.52-3.78-3.2-3.51-2.54,0-5.21,5.13-3.9,11.15-5.99,17.83-7.54Z"/>
  <path class="st6" d="M21.62,47.54c1.38-2.27,3.51-3.77,5.49-5.41,2.1-1.73,4.44-3.14,6.89-4.31,4.14-1.98,8.5-3.38,13.08-4.13,3.95-.65,7.91-.63,11.87-.3,4.02.34,7.99,1.07,11.79,2.47,5.55,2.04,10.87,4.56,15.61,8.13.89.67,1.89,1.25,2.26,2.51-1.55-.74-3.13-1.42-4.63-2.25-4.88-2.7-10.26-3.77-15.66-4.82-6.24-1.22-12.57-1.21-18.86-1.13-5.14.07-10.18,1.17-15.03,2.87-3.62,1.27-7.13,2.79-10.34,4.91-.79.52-1.45,1.27-2.48,1.45Z"/>
  <path class="st3" d="M61.12,40.76c2.8-.76,4.31.74,5.55,2.82,2.23,3.75,1.58,8.58-1.45,11.94-5.64,6.26-15.94,7.15-22.25,1.69-4.53-3.92-5.38-10.02-1.31-15.26.36-.47.87-.57,1.37-.64,1.66-.26,3.33-.46,5.03-.69.02.71-.56.9-.89,1.24-2.86,2.93-3.57,6.87-1.81,10.24,1.81,3.48,6.24,5.44,10.1,4.51,2.59-.63,4.67-2.03,6.37-3.97,2.79-3.18,2.62-7.62.13-10.74-.28-.35-.71-.6-.82-1.13Z"/>
  <path class="st2" d="M60.18,41.79c-1.61-1.37-3.48-1.69-5.52-1.78-2.83-.13-5.19.78-7.02,2.79-1.91,2.1-2.91,4.56-1.93,7.4.95,2.78,2.96,4.41,5.93,5,1.36.27,2.65.21,3.98.04,4.06-.52,7.16-3.89,7.27-8.83-.03-1.36-.98-3.15-2.72-4.63ZM48.79,48.42c.08-3.15,2.15-5.33,5-5.24,2.52.07,5.21,2.55,5.2,4.74,0,2.3-3.06,4.98-5.57,4.59-2.85-.09-4.68-1.71-4.63-4.08Z"/>
  <path class="st1" d="M53.41,52.5c-2.85-.09-4.68-1.71-4.63-4.08.08-3.15,2.15-5.33,5-5.24,2.52.07,5.21,2.55,5.2,4.74,0,2.3-3.06,4.98-5.57,4.59Z"/>
</svg>