<?xml version="1.0" encoding="UTF-8"?>
<svg id="Capa_1" xmlns="http://www.w3.org/2000/svg" version="1.1" viewBox="0 0 108 186">
  <!-- Generator: Adobe Illustrator 29.8.5, SVG Export Plug-In . SVG Version: 2.1.1 Build 2)  -->
  <defs>
    <style>
      .st0 {
        fill: #3f4958;
      }

      .st1 {
        fill: #a8b888;
      }

      .st2 {
        fill: #ffbc96;
      }

      .st3 {
        fill: #fff;
      }

      .st4 {
        fill: #ff827f;
      }

      .st5 {
        fill: #00b6bf;
      }

      .st6 {
        fill: #414b5a;
      }

      .st7 {
        fill: #ffd69f;
      }

      .st8 {
        fill: #f7f8f9;
      }
    </style>
  </defs>
  <path class="st0" d="M77.96,113.65c-.4-.61-.88-1.22-1.24-1.9-1.48-2.82-.6-5.51,2.28-6.9.84-.41,1.39-.85,1.38-1.89-.01-4.55.03-9.1.04-13.65,0-.19-.13-.37-.19-.55-.76-.13-1.23.39-1.77.69-6.57,3.63-13.58,5.73-21.09,6.13-1.9.1-1.93.12-1.83,1.95.28,5.26.22,10.51-.06,15.77-.06,1.14.03,1.86,1.41,2.33,2.76.95,3.67,3.95,2,6.48-.77,1.17-.81,1.92.13,2.89.98,1.01,1.06,2.45,1.61,3.68,3.9,8.77,4.67,17.94,3.28,27.3-.63,4.27-1.29,8.59-2.71,12.68-.97,2.8-1.63,5.73-3.14,8.35-.81,1.41-1.33,2.98-1.73,4.57-.1.41-.14.86-.33,1.22-.44.86-1.38.89-1.82.05-.36-.68-.67-1.41-.87-2.15-1.14-4.18-2.29-8.35-3.33-12.55-.86-3.45-2.27-6.71-3.09-10.18-1.2-5.06-1.38-10.13-.71-15.24.4-3.1.91-6.18,1.55-9.24.6-2.86,1.7-5.56,3.41-7.98.37-.52.74-1.03,1.23-1.7-.36-.29-.74-.51-1.01-.81-2.1-2.36-1.64-5.45,1.13-7.02.75-.42,1.25-.75,1.14-1.73-.55-5.18.04-10.37,0-15.55,0-.43,0-.85,0-1.28-.02-1.74-.02-1.75-1.71-1.86-5.14-.34-10.12-1.41-14.9-3.35-1.77-.72-3.49-1.57-5.24-2.37-.38-.18-.74-.44-1.32-.34-.38,1.42.06,2.88.05,4.32-.01.9.83.85,1.36,1.09,1.96.85,3.03,2.3,3.09,4.44.05,1.52-.61,2.79-1.75,3.73-.74.61-.92,1.01-.32,1.89,3.4,5.05,4.58,10.82,4.97,16.76.66,9.92-1.9,19.14-6.32,27.92-.19.38-.4.76-.61,1.12-.37.63-.77,1.26-1.64,1.08-.8-.17-1.46-.58-1.67-1.45-.16-.69-.29-1.39-.41-2.08-.58-3.24-1.49-6.35-3.49-9.05-.25-.34-.49-.71-.66-1.09-2.54-5.8-4.16-11.76-3.18-18.18.17-1.12.24-2.26.38-3.38.52-4.02,2.37-7.39,5.08-10.33.57-.62,1.13-1.27,1.73-1.94-.48-.41-.93-.74-1.32-1.13-2.62-2.6-1.92-6.67,1.5-8.03,1.07-.43,1.42-.9,1.34-1.99-.11-1.63.27-3.39-.24-4.86-.53-1.52-2.45-2.01-3.72-3-10.42-8.04-16.65-18.54-18.22-31.61C4.03,33.82,15.16,14.68,33.51,6.28c4.67-2.14,9.44-3.37,14.46-3.95.99-.11,1.98-.17,2.87-.7.71-.42,1.5-.42,2.28-.38,19.47.94,34.78,9.16,43.61,26.85,10.24,20.52,5.05,44.39-13.51,58.23-1.03.77-1.39,1.56-1.35,2.83.15,4.4.21,8.81.22,13.22,0,1.18.35,1.71,1.51,2.11,2.98,1.03,4.43,3.21,4.24,5.91-.08,1.19-.53,2.21-1.33,3.06-.43.46-.44.81,0,1.25.99.99,1.57,2.18,1.74,3.57.06.52.33.93.67,1.3.45.49.65,1.1.77,1.73.36,2.03.84,4.04,1.02,6.09.35,3.96.63,7.93.53,11.91-.15,6.02-1.16,11.89-3.49,17.44-1.04,2.48-2.25,4.89-3.19,7.42-.05.13-.09.27-.16.4-.43.85-.98,1.73-2.01,1.64-1.03-.09-1.1-1.18-1.34-1.97-1.23-4.07-2.33-8.17-3.64-12.23-1.94-5.99-3.94-12.02-4.6-18.35-.76-7.27.85-13.96,5.12-20.01ZM56.72,118.52c-.52-.69-1.14-1.22-2.07-1.17-.66.04-1.04.43-.98,1.09.06.7.62.61,1.11.59.71-.02,1.24-.67,1.98-.55-.53,2.25-2.34,1.81-4.05,1.66,1.17,1.69,2.31,2.03,3.59,1.24,1.01-.62,1.11-1.33.42-2.86ZM80.92,131.2c.07-1.04,1.48-1.52,1.21-2.79-3.66,3.19-6.28,8.02-5.55,10.23.21-.31.4-.6.59-.89.26,0,.53,0,.79,0-.03.21-.01.43-.08.63-1.06,2.88-.82,4.68,1.06,7.49.98-2.17,1.53-4.45,2.79-6.4,1.61-2.49.97-5.15.61-7.76-.16-1.14-.6.08-.93.07-.16-.19-.33-.39-.49-.58ZM27.79,118.61c-.18-.15-.36-.3-.54-.45,1.43-.93,1.91-2.2,1.78-3.92-.18-2.47-.07-4.95-.14-7.43-.02-.73.12-1.54-.54-2.28-3.28,3.27-5.66,6.89-6.27,11.54-.31,2.4-.35,4.79-.39,7.2l.44.87c-.54.88-.26,1.66.18,2.54,1.1-1.04,2.09-1.95,3.04-2.9,1.01-1,1.93-2.09,2.99-3.02.59-.51.59-1.06.61-1.7.05-1.35-.67-.6-1.17-.44ZM34.49,115.54c.19.27.38.54.84,1.2-.49-4.2-1.57-7.71-3.54-10.93-.11-.18-.22-.36-.35-.53-.29-.39-.55-.91-1.17-.65-.52.21-.35.7-.33,1.11.06,1.2.16,2.4.18,3.6,0,.62.22,1.09.64,1.5l-.56.79c-.19,3.04-.07,6.08.05,9.12.03.64.05,1.28.55,1.78,1.63,1.64,3.04,3.46,4.49,5.76.29-3.93,1.17-7.48-.95-10.81-.18-.29-.22-.67-.32-1.01.07-.36.01-.78.48-.94ZM31.48,144.18c.88-2.24,1.71-4.5,2.23-6.85.11-.48.39-.95.2-1.45-.79-2.08-1.56-4.17-3.3-6.29.43,5.16.25,9.88.37,14.6-.24.22-.32.55,0,.63.45.12.52-.28.5-.64ZM55.83,144.6c0,.49.04.99.02,1.48-.21,3.91.41,7.55,3.29,10.5.34.35.54.82.83,1.22.16.22.32.47.73.39.42-.29.35-.84.46-1.28.59-2.43.68-4.75-1.45-6.62-.53-.47-.79-1.16-.91-1.87.29,0,.59,0,.88-.01.61.76,1.06,1.67,2.15,2.11.4-1.78.21-3.53.16-5.28-.05-1.84-.65-3.53-1.8-4.91-1.28-1.54-2.28-3.25-3.41-4.88-.22-.32-.35-.79-.96-.74,0,2.68-.02,5.35.02,8.03,0,.32.29.63.45.94-.15.31-.3.62-.45.93ZM48.56,141.57c.34.02.5-.24.63-.47,1.04-1.85,2.58-3.19,4.37-4.23.78-.46,1.04-1,.99-1.88-.13-2.76-.19-5.52-.27-8.28-.02-.57.03-1.14-.06-1.7-.1-.59-.5-.64-.89-.24-.29.3-.51.68-.73,1.04-2.98,4.85-3.95,10.22-4.02,15.81-.06.04-.13.09-.19.13.04,0,.09,0,.1-.02.03-.04.04-.1.05-.15ZM14.45,25.15c-.33.05-.43.32-.57.56-2.06,3.58-3.56,7.39-4.53,11.41-.25,1.03-.45,2.08-.39,3.15.1,1.69.92,2.76,2.24,2.91,1.42.16,2.96-.86,3.34-2.3.8-3.02,1.78-5.97,3.15-8.78.24-.49.68-.94.52-1.56-3-.92-3.58-1.7-3.59-4.84,0-.2-.13-.39-.19-.58.36.14.28-.07.22-.27-.06.1-.13.21-.19.31ZM63.86,46.4c4.12.82,7.3,2.64,10.21,4.97.66.53,1.32.76,2.15.63,3.52-.55,6.98-1.28,10.16-2.96,1.39-.73,2.69-1.59,3.66-2.86,1.02-1.34,1.05-1.86,0-3.21-3.4-4.34-7.85-6.84-13.31-7.61-1.4-.2-2.31.1-3.14,1.43-2.38,3.83-5.37,7.13-9.73,9.61ZM60.16,53.32c2.13,3.76,2.64,7.69,2.7,11.69.02,1.06.38,1.69,1.3,2.19,5.41,2.94,11.05,3.38,16.9,1.62,1.44-.43,1.56-.66,1.17-2.17-.26-1.02-.65-2.03-1.08-3-1.4-3.16-3.49-5.83-5.9-8.28-.81-.82-1.62-1.2-2.8-1.14-2.98.15-5.96-.06-8.92-.49-1.04-.15-2.03-.65-3.36-.41ZM53.11,37.51c1.28-4.85,3.55-8.74,6.73-12.1.53-.56.8-1.13.64-1.91-.75-3.56-1.71-7.03-3.7-10.15-.47-.73-1.04-1.33-1.79-1.78-1.34-.81-1.68-.86-2.8.18-4.33,4.03-6.77,9.04-7.64,14.85-.1.69,0,1.22.58,1.69,3.1,2.53,5.72,5.5,7.98,9.2ZM53.51,55.78c-2.39,7.59-3.11,8.92-7.94,14.48-.55.63-.66,1.17-.41,1.91,1.13,3.44,2.86,6.55,5.76,8.75,3.51,2.68,3.43,3.02,6.11-.93,2.27-3.34,3.13-7.25,3.85-11.17.16-.85-.06-1.47-.78-2.02-1.13-.86-2.06-1.94-2.96-3.04-1.82-2.25-2.83-4.88-3.63-7.99ZM45.41,41.03c-2.11-3.4-2.98-7.07-2.94-10.98,0-.72-.3-1.18-.86-1.59-2.84-2.03-5.82-3.82-9.18-4.84-1.49-.45-3.04-.76-4.62-.49-1.86.32-2.12.65-1.99,2.54.35,5.07,2.39,9.43,5.53,13.35.6.75,1.22.98,2.2.84,3.99-.56,7.93-.38,11.87,1.16ZM43.86,56.11c-3.81,1.66-7.67,2.76-11.75,2.91-.94.03-1.37.61-1.8,1.28-2.23,3.44-3.3,7.2-3.17,11.3.06,2.07.78,2.99,2.77,3.41.91.19,1.85.27,2.75.06,3.28-.78,6.33-2.07,8.98-4.21.55-.44.76-.93.67-1.66-.54-4.44-.24-8.79,1.55-13.09ZM15.63,51.46c3.54,3.32,7.72,4.8,12.34,5.31,1.36.15,2.43,0,3.35-1.21.71-.94,1.72-1.68,2.63-2.46,2.31-1.98,4.95-3.44,7.78-4.69-.23-.18-.32-.32-.44-.35-3.58-.9-6.74-2.55-9.4-5.13-.62-.6-1.22-.52-1.94-.34-5.61,1.46-10.62,3.89-14.31,8.87ZM62.56,36.63c3.31-2.03,6.48-3.18,9.95-3.39.89-.05,1.22-.61,1.55-1.24,1.49-2.83,2.79-5.75,3.51-8.89.21-.9.31-1.82.44-2.73.11-.79-.24-1.22-1.06-1.21-.57,0-1.14-.05-1.7,0-3.78.38-7.06,1.97-10.13,4.14-1.39.98-2.29,2.01-1.8,3.86.19.73.07,1.55.06,2.34-.03,2.27-.41,4.5-.81,7.12ZM62.73,68.86c-.57,5.44-1.99,10.34-5.52,14.94,9.57-1.41,17.03-5.79,23.61-12.03-6.35,1.34-12.27.24-18.09-2.91ZM27.66,21.7c5.56-.26,10.32,1.74,15.02,4.77.96-6.18,3.52-11.36,8.21-15.67-6.4.26-18.22,4.92-23.23,10.9ZM24.18,25.1c-5.69,6.52-9.79,18.32-8.23,23.48,3.52-4.36,8.32-6.51,13.59-8.13-3.48-4.57-5.09-9.55-5.36-15.36ZM75.82,33.18c5.98.76,11.04,3.05,15.25,7.24-1.07-8.05-4.68-14.64-10.93-20.3-.6,4.85-2.22,8.95-4.32,13.06ZM91.66,48.26c-2.3,2.06-4.48,3.19-6.83,4.03-2.35.85-4.84,1.19-7.39,1.76q5.88,7.51,7.65,12.97c3.82-5.64,6.17-11.57,6.58-18.76ZM38.85,89.73c.24.18.35.29.47.34.33.13.66.25,1,.35,4.72,1.44,9.54,2.06,14.47,1.96,2.22-.04,3.33-1.03,3.68-3.23.26-1.64-.73-2.87-2.43-2.97-.49-.03-.99.04-1.49.07-3.06.15-6.09-.02-9.1-.59-1.31-.25-2.6-.59-4.08-.93.21,2.26-.31,4.07-2.52,4.99ZM24.7,72.69c-.3-5.3,1.33-9.59,3.81-13.77-4.77-.6-8.85-2.27-12.73-5.2,1.15,7.26,3.86,13.37,8.92,18.97ZM50.37,83.92c-3.73-2.9-5.83-6.83-7.32-11.22-2.11,1.34-3.77,2.8-5.81,3.68-2.06.89-4.28.89-6.81,1.28,6.23,4.29,12.69,6.38,19.94,6.25ZM59.15,91.96c.41.02.69.07.96.04,3.95-.57,7.79-1.53,11.47-3.08,2.6-1.09,3.26-2.32,2.79-5.15-.39-2.33-1.01-2.68-3.14-1.68-2.96,1.39-6.03,2.49-9.23,3.19-.61.13-1.27.11-1.93.69,1.19,2.11-.03,3.99-.93,6ZM8.54,43.22c-.91,3.41.11,12.68,1.58,16.64.12.33.27.66.47.94.75,1.03,2.67,1.64,3.58,1.17,1.08-.56,1.31-1.37.87-3.14-1.17-4.63-1.82-9.31-1.14-14.1.03-.2,0-.4-.3-.54-1.81.98-3.49.58-5.06-.98ZM75.59,16.99c-5.36-3.52-11.16-5.48-17.92-5.99,2.73,3.67,4.16,7.44,5.1,11.62,3.97-3.04,8.05-5.05,12.81-5.62ZM29.33,145.17c.19-7.95-.24-15.69-.53-23.49-1.58,1.79-3.24,3.32-4.91,4.84-1.63,1.49-1.7,3.21-.86,5.03.65,1.43,1.14,2.9,1.7,4.36.25.66.49,1.36.91,1.92,1.34,1.8,2.09,3.86,2.83,5.93.16.44.14.98.86,1.4ZM23.09,80.58c3.73,3.36,7.47,5.88,11.65,7.75.66.29,1.33.49,2.06.42,1.7-.17,2.93-1.45,2.45-2.77-.44-1.21-.95-2.41-2.44-2.96-3.62-1.34-6.83-3.43-9.82-5.87-.36-.29-.65-.79-1.35-.61.11,1.76-.17,3.39-2.54,4.04ZM11.55,63.43c2.08,5.67,5.23,10.56,9.28,14.9.1.1.2.2.3.3.6.55,1.3.5,2,.27.76-.25.79-.92.78-1.57-.03-1.87-.4-3.58-1.72-5.05-1.62-1.79-2.94-3.81-4.06-5.95-.61-1.18-1.21-2.36-1.91-3.72-1.4,1.37-2.92,1.5-4.67.82ZM26.87,19.74c-3.41-1.05-2.59-3.67-2.4-6.37-2.42,1.95-4.34,3.89-6.14,5.95-1.57,1.8-2.15,3.95-2.24,6.25-.06,1.52.38,2.27,1.4,2.53,1.19.3,2.33-.03,3.03-.98,1.88-2.58,3.93-5,6.35-7.38ZM94.44,67.41c1.72-3.29,2.81-6.63,3.55-10.09.06-.27.04-.56.03-.85-.11-1.73-.66-2.32-2.28-2.47-2.14-.2-2.68.08-3.15,1.86-.72,2.75-1.72,5.38-3.02,7.9-.22.42-.61.81-.38,1.47,2.01-.13,3.93.14,5.25,2.17ZM44.41,67.89c3.74-3.82,6.51-8.13,7.39-13.49.27-1.63-1.35-1.35-1.98-2.06-.65-.72-1.12-.12-1.55.34-4.13,4.34-4.5,9.63-3.86,15.21ZM48.47,3.69c-4.08.49-7.63,1.6-11.07,3.11-1.28.57-1.75,2.28-1.16,3.79.3.77,1.24,1.08,2.61.84,3.52-.62,6.9-1.83,10.89-2.25-1.79-1.58-1.86-3.29-1.28-5.49ZM86.14,79.16c2.6-2.69,4.73-5.33,6.42-8.29,1.11-1.94-.24-3.91-2.49-3.84-1.2.04-2.15.64-3.09,1.28-.45.31-4.23,5.33-4.6,6.06,2.55.36,2.92,2.55,3.76,4.79ZM48.32,153.24c1.27-1.55,2.22-2.96,3.55-3.99,2.21-1.72,3.31-3.85,2.75-6.75-.21-1.09-.01-2.26-.06-3.39-.02-.44.26-1-.55-1.44-3.18,2.89-6.56,5.63-6.15,10.72.12,1.48.1,2.97.47,4.86ZM34.45,7.28c-2.35.96-4.44,2.01-6.27,3.42-1.54,1.19-2.52,2.82-2.4,4.94.09,1.59.4,2.01,1.93,2.2.8.1,1.5-.06,2.18-.56,1.37-1,2.82-1.88,4.21-2.85.67-.47,1.6-.61,2.03-1.47-2.55-1.21-1.55-3.49-1.68-5.69ZM98.76,52.85c.32-3.9.28-7.56-.3-11.21-.22-1.42-.32-1.48-1.8-1.24-.35.06-.7.11-1.03.23-1.55.56-1.86.99-1.7,2.66.18,1.84.12,3.67-.05,5.5-.11,1.17-.22,2.33-.34,3.62,1.79-.4,3.38-.17,5.22.43ZM89.08,138.97c.26-2.89.26-5.43.19-7.98-.01-.49-.07-.99-.36-1.42-1.46-2.18-3.16-4.1-5.86-5.47.26,3.46.51,6.68.76,9.9.03.37.15.69.5.88,1.75.98,2.95,2.6,4.78,4.1ZM76.53,86.36c2.01-.97,3.6-2.23,5.26-3.39,1.36-.96,1.78-2.32,1.87-3.86.06-1.04-.19-2.1-1.11-2.61-1.04-.57-2.2-.46-3.2.31-1.56,1.19-3.12,2.39-4.69,3.6,1.71,1.57,1.45,3.76,1.87,5.96ZM72.03,35.41c-1.9-.07-3.25.38-4.56.86-3.04,1.13-5.74,2.73-7.48,5.61-.21.34-.61.59-.45,1.09.4,1.23,2,2.11,3.26,1.68.66-.23,1.3-.58,1.87-.98,2.97-2.14,5.1-5.02,7.36-8.26ZM60.8,27.8c-3.28,3.45-5.1,7.53-6.14,12.01-.18.8.05,1.2.88,1.28.42.04.88.11,1.23.32,1.04.62,1.49.03,2.01-.76,2.64-3.98,2.59-8.37,2.02-12.86ZM56.64,155.41c-.14.06-.28.11-.42.17.24,6.57,0,13.14.04,19.96.63-.54.8-.92.9-1.33.92-3.77,2.24-7.44,3.07-11.25.29-1.36-.19-2.41-.74-3.41-.8-1.46-1.89-2.77-2.85-4.14ZM75.48,135.71c1.86-3.44,3.79-6.38,6.3-8.89.29-.28.37-.58.34-.94-.13-1.52-.25-3.04-.41-5-1.82,1.82-3.28,3.39-4.75,4.98-2.69,2.9-2.39,6.08-1.48,9.85ZM33.57,56.55c5.3-.11,9.87-2.07,13.86-5.49.44-.37.57-.7.32-1.27-.28-.64-.67-.83-1.33-.67-4.98,1.21-9.35,3.5-12.86,7.42ZM61.85,4.9c-3.26-.76-6.38-.72-9.5-.7-.51,0-.95.05-1.22.62-.89,1.86.06,3.49,2.1,3.53,1.42.02,2.84.02,4.26.05.99.02,2.08.37,2.95.06,1.01-.36.43-1.79,1.02-2.59.16-.21.21-.5.4-.97ZM61.33,139c.03-1.4-.49-2.64-.59-3.93-.23-3.04-1.99-5.55-2.88-8.37-.2-.64-.79-1.16-1.18-1.75-.21-.32-.49-.56-.86-.49-.54.11-.52.59-.51,1.01.05,2.12.12,4.24.17,6.36.01.45.12.87.45,1.14,1.61,1.33,2.53,3.21,3.8,4.8.38.48.68,1.07,1.59,1.22ZM53.24,43.07c-2.05-.06-3.11.58-3.87,2.33-.71,1.64-.34,3.41,1.04,4.65,1.63,1.46,3.54,1.77,5.55.98,2.62-1.04,3.28-3.99,1.43-6.13-1.09-1.26-2.5-1.81-4.15-1.83ZM61.13,65.1c.16-3.79-.26-6.97-1.6-10-1-2.27-1.1-2.23-3.49-1.5-.81.25-.98.52-.83,1.32.72,3.92,2.62,7.14,5.92,10.18ZM97.67,38.22c-.73-3.3-2.11-6.23-3.55-9.15-.28-.58-.74-.61-1.24-.35-.56.29-1.09.65-1.64.97-.52.3-.62.75-.4,1.27,1.12,2.65,1.93,5.4,2.63,8.21.81-.3,1.39-.58,2-.72.68-.15,1.39-.15,2.2-.23ZM75.28,125.61c1.94-2,3.89-3.91,6.09-5.55.33-.25.37-.57.32-.94-.13-1.05-.27-2.1-.38-3.16-.12-1.12-1.12-1.17-1.85-1.48-.87-.38-1.11.47-1.36.97-1.6,3.17-2.79,6.47-2.82,10.17ZM92.62,26.47c-1.74-3.06-3.81-5.63-6.01-8.1-.68-.76-1.26-.76-1.97-.16-.81.69-1.15,1.76-.59,2.4,2.04,2.34,3.86,4.83,5.5,7.71.85-1.08,1.86-1.5,3.07-1.85ZM74.18,9.13c-2.89-1.55-5.86-2.63-8.91-3.51-1.29-.37-1.65-.13-2.04,1.1-.42,1.29-.09,2.09,1.44,2.54,2.63.77,5.22,1.63,8.06,2.82-.12-1.38.77-2.04,1.45-2.94ZM84.33,135.73c-.13.05-.27.1-.4.15,0,2.37,0,4.75,0,7.12,0,.2.03.49.17.59,1.48,1.19,2,3.2,3.68,4.42.3-1.37.57-2.61.84-3.85.38-1.69-.03-3.26-1.02-4.6-.99-1.35-2.18-2.56-3.28-3.84ZM44.68,31.28c.17,4.21,1.67,7.75,4.7,10.63.65.62,1.04.41,1.63.07.66-.39,1.16-.73.77-1.65-1.54-3.66-3.95-6.63-7.09-9.05ZM54.59,153.24c-1.65,1.96-2.95,3.51-4.26,5.06-.44.53-.58,1.11-.34,1.77.64,1.74,1.29,3.48,2.21,5.28.61-.84,1.03-1.59,1.75-2.07.45-.3.61-.73.61-1.27,0-2.74.27-5.48.03-8.78ZM88.91,127.16c.28-1.24-.25-2.08-.25-2.99,0-1.66-.13-3.29-1.81-4.25-1.35-.77-2.39-2.14-4.21-2.26.06,1.41.12,2.68.17,3.94.03.82.26,1.44,1.08,1.89,1.77.98,3.63,1.84,5.01,3.67ZM60.08,51.46c3.31.82,8.23,1.14,11.29.73-2.27-1.95-4.74-3.2-7.44-4-2.14-.64-2.15-.58-2.98,1.46-.24.58-.54,1.13-.87,1.81ZM82.62,157.72v-17.39c-1.42,2.02-2.09,4.24-2.52,6.53-.21,1.1-.68,2.17-.2,3.33,1,2.47,2.07,4.93,2.72,7.53ZM34.41,41.78c3.76,3.56,9.24,4.94,13.3,3.34-3.97-3.16-8.37-3.41-13.3-3.34ZM84.02,15.99c-1.15-1.28-2.35-2.15-3.54-3.02-1.03-.75-2.08-1.47-3.17-2.11-.78-.46-1.79-.03-2.28.88-.41.75-.48,1.4.46,1.93,2.21,1.23,4.16,2.85,6.28,4.52.43-1.09,1.28-1.61,2.25-2.21ZM84.08,145.33c-.4,4.47.45,8.76.22,13.44,3.49-6.39,3.75-8.42-.22-13.44ZM30.71,123.91c-1.03,4.11,2.37,6.49,3.54,10.02,1.75-4.61-1.32-7.16-3.54-10.02ZM49.38,157.32c1.38-1.59,2.45-3.25,3.92-4.4,1.68-1.32,1.51-2.73,1.15-4.68-1.94,1.98-3.82,3.57-5.12,5.72-.66,1.09-.86,2.04.06,3.35ZM27.47,97.43c-1.18,1.6-1.24,2.54-.22,3.53,1.21,1.17,3.48,1.26,4.69.18,1.07-.95,1.09-2.06.06-3.45-1.89,1.87-2.96,1.81-4.53-.27ZM85.27,109.13c-4.38,2.35-6.17,1.45-6.77-1.61-.78,1.63-.65,2.61.5,3.78,1.27,1.29,3.43,1.79,4.89,1.12,1.23-.57,1.63-1.44,1.38-3.29ZM81.94,106.17c-.73.19-1.56.19-1.96,1.02-.2.43-.1.85.16,1.2.55.73,1.3.74,2.1.48.13-.04.28-.06.41-.11.66-.23,1.63-.35,1.62-1.11,0-.83-.98-1.09-1.69-1.38-.19-.08-.41-.07-.63-.1ZM54.23,172.68c.07-.02.13-.05.2-.07v-8.06c-.91,1.11-1.99,1.81-1.75,3,.36,1.74,1.02,3.42,1.55,5.13ZM86.78,118.47c-.15-2.68-1.3-3.84-3.26-3.37-.43.1-1.08-.13-1.17.58-.09.71.49.97,1.02,1.15,1.19.39,2.36.8,3.41,1.64ZM29.53,97.9c.42.06.7-.12.74-.53.01-.15-.18-.43-.31-.46-.37-.07-.73.12-.88.45-.13.32.17.47.45.54Z"/>
  <path class="st5" d="M38.85,89.73c2.21-.92,2.74-2.74,2.52-4.99,1.48.34,2.77.69,4.08.93,3.01.57,6.04.74,9.1.59.5-.02.99-.1,1.49-.07,1.7.1,2.69,1.33,2.43,2.97-.35,2.2-1.46,3.18-3.68,3.23-4.92.1-9.75-.52-14.47-1.96-.34-.1-.67-.22-1-.35-.13-.05-.23-.16-.47-.34Z"/>
  <path class="st5" d="M59.15,91.96c.91-2.01,2.13-3.88.93-6,.65-.58,1.31-.56,1.93-.69,3.2-.7,6.26-1.79,9.23-3.19,2.13-1,2.75-.65,3.14,1.68.47,2.84-.19,4.06-2.79,5.15-3.69,1.55-7.53,2.52-11.47,3.08-.27.04-.55-.02-.96-.04Z"/>
  <path class="st5" d="M8.54,43.22c1.58,1.57,3.25,1.96,5.06.98.3.14.33.34.3.54-.68,4.78-.04,9.46,1.14,14.1.45,1.76.22,2.57-.87,3.14-.91.47-2.83-.14-3.58-1.17-.2-.28-.35-.61-.47-.94-1.47-3.97-2.48-13.23-1.58-16.64Z"/>
  <path class="st4" d="M29.33,145.17c-.71-.43-.7-.96-.86-1.4-.74-2.07-1.49-4.13-2.83-5.93-.41-.56-.66-1.26-.91-1.92-.56-1.46-1.05-2.94-1.7-4.36-.83-1.82-.77-3.55.86-5.03,1.67-1.52,3.33-3.05,4.91-4.84.29,7.8.72,15.54.53,23.49Z"/>
  <path class="st5" d="M14.42,25.11c.07.2.19.39.19.59,0,3.14.58,3.93,3.59,4.84.16.63-.28,1.08-.52,1.56-1.36,2.82-2.34,5.77-3.15,8.78-.38,1.44-1.92,2.46-3.34,2.3-1.32-.15-2.14-1.22-2.24-2.91-.06-1.08.14-2.13.39-3.15.97-4.02,2.47-7.83,4.53-11.41.14-.24.25-.51.57-.56l-.03-.04Z"/>
  <path class="st5" d="M23.09,80.58c2.38-.65,2.65-2.28,2.54-4.04.71-.18.99.31,1.35.61,2.99,2.43,6.2,4.53,9.82,5.87,1.48.55,2,1.75,2.44,2.96.48,1.33-.75,2.61-2.45,2.77-.73.07-1.4-.13-2.06-.42-4.18-1.87-7.92-4.39-11.65-7.75Z"/>
  <path class="st5" d="M11.55,63.43c1.75.67,3.27.55,4.67-.82.7,1.36,1.3,2.54,1.91,3.72,1.12,2.14,2.44,4.16,4.06,5.95,1.33,1.47,1.69,3.18,1.72,5.05,0,.65-.02,1.32-.78,1.57-.69.23-1.39.27-2-.27-.1-.1-.21-.19-.3-.3-4.04-4.34-7.2-9.23-9.28-14.9Z"/>
  <path class="st4" d="M21.69,123.26c.03-2.4.07-4.8.39-7.2.61-4.64,2.99-8.26,6.27-11.54.67.74.52,1.55.54,2.28.07,2.48-.04,4.96.14,7.43.13,1.73-.35,2.99-1.78,3.92-1.53.81-2.72,2-3.79,3.34-.52.65-.89,1.46-1.77,1.76Z"/>
  <path class="st5" d="M26.87,19.74c-2.42,2.39-4.47,4.81-6.35,7.38-.69.95-1.84,1.28-3.03.98-1.02-.26-1.46-1.01-1.4-2.53.09-2.3.66-4.45,2.24-6.25,1.81-2.07,3.72-4.01,6.14-5.95-.19,2.7-1.02,5.32,2.4,6.37Z"/>
  <path class="st5" d="M94.44,67.41c-1.32-2.03-3.24-2.3-5.25-2.17-.22-.66.17-1.05.38-1.47,1.3-2.52,2.3-5.15,3.02-7.9.47-1.78,1.01-2.07,3.15-1.86,1.62.16,2.17.75,2.28,2.47.02.28.03.57-.03.85-.75,3.46-1.83,6.79-3.55,10.09Z"/>
  <path class="st4" d="M44.41,67.89c-.64-5.58-.27-10.87,3.86-15.21.44-.46.91-1.06,1.55-.34.63.71,2.25.44,1.98,2.06-.88,5.36-3.65,9.67-7.39,13.49Z"/>
  <path class="st5" d="M48.47,3.69c-.59,2.19-.51,3.9,1.28,5.49-3.99.42-7.37,1.64-10.89,2.25-1.38.24-2.31-.07-2.61-.84-.59-1.51-.12-3.23,1.16-3.79,3.43-1.51,6.99-2.62,11.07-3.11Z"/>
  <path class="st5" d="M86.14,79.16c-.84-2.24-1.22-4.43-3.76-4.79.37-.72,4.15-5.74,4.6-6.06.93-.65,1.89-1.25,3.09-1.28,2.26-.07,3.61,1.9,2.49,3.84-1.69,2.96-3.82,5.6-6.42,8.29Z"/>
  <path class="st2" d="M48.32,153.24c-.37-1.89-.35-3.38-.47-4.86-.41-5.09,2.97-7.83,6.15-10.72.81.45.54,1,.55,1.44.04,1.13-.16,2.3.06,3.39.57,2.9-.54,5.03-2.75,6.75-1.33,1.04-2.27,2.44-3.55,3.99Z"/>
  <path class="st5" d="M34.45,7.28c.13,2.2-.88,4.48,1.68,5.69-.43.86-1.36,1-2.03,1.47-1.39.97-2.84,1.85-4.21,2.85-.69.5-1.39.66-2.18.56-1.53-.19-1.84-.61-1.93-2.2-.12-2.12.86-3.75,2.4-4.94,1.83-1.42,3.92-2.47,6.27-3.42Z"/>
  <path class="st2" d="M48.59,141.61c.07-5.59,1.03-10.96,4.02-15.81.22-.36.44-.74.73-1.04.39-.4.79-.34.89.24.09.55.04,1.13.06,1.7.08,2.76.14,5.52.27,8.28.04.88-.21,1.42-.99,1.88-1.79,1.05-3.34,2.38-4.37,4.23-.13.23-.28.5-.63.47l.03.04Z"/>
  <path class="st5" d="M98.76,52.85c-1.85-.6-3.43-.83-5.22-.43.12-1.29.23-2.46.34-3.62.17-1.83.23-3.66.05-5.5-.16-1.67.15-2.1,1.7-2.66.33-.12.68-.18,1.03-.23,1.48-.24,1.58-.18,1.8,1.24.58,3.65.62,7.3.3,11.21Z"/>
  <path class="st4" d="M89.08,138.97c-1.82-1.5-3.03-3.12-4.78-4.1-.34-.19-.47-.51-.5-.88-.25-3.22-.49-6.43-.76-9.9,2.69,1.37,4.39,3.3,5.86,5.47.29.43.35.93.36,1.42.07,2.54.07,5.09-.19,7.98Z"/>
  <path class="st4" d="M34.01,116.48c.1.34.14.72.32,1.01,2.12,3.33,1.24,6.88.95,10.81-1.45-2.3-2.86-4.12-4.49-5.76-.5-.5-.52-1.14-.55-1.78-.13-3.04-.24-6.08-.05-9.12,1.43.64,2.29,1.82,2.97,3.18.28.56.35,1.23.85,1.67Z"/>
  <path class="st5" d="M76.53,86.36c-.42-2.2-.16-4.39-1.87-5.96,1.57-1.21,3.13-2.41,4.69-3.6,1-.76,2.17-.88,3.2-.31.92.51,1.16,1.57,1.11,2.61-.09,1.54-.51,2.91-1.87,3.86-1.66,1.16-3.26,2.42-5.26,3.39Z"/>
  <path class="st4" d="M72.03,35.41c-2.26,3.25-4.39,6.13-7.36,8.26-.57.41-1.21.76-1.87.98-1.26.43-2.86-.45-3.26-1.68-.16-.5.24-.75.45-1.09,1.74-2.88,4.45-4.48,7.48-5.61,1.31-.49,2.66-.93,4.56-.86Z"/>
  <path class="st4" d="M60.8,27.8c.58,4.48.62,8.88-2.02,12.86-.52.79-.98,1.38-2.01.76-.35-.21-.81-.27-1.23-.32-.83-.09-1.06-.48-.88-1.28,1.03-4.48,2.86-8.56,6.14-12.01Z"/>
  <path class="st2" d="M56.28,143.67c-.16-.31-.44-.62-.45-.94-.04-2.68-.02-5.35-.02-8.03.61-.05.74.42.96.74,1.14,1.63,2.13,3.34,3.41,4.88,1.15,1.38,1.75,3.07,1.8,4.91.05,1.75.23,3.51-.16,5.28-1.09-.44-1.54-1.35-2.15-2.11-.77-1.84-1.61-3.63-3.39-4.74Z"/>
  <path class="st2" d="M56.64,155.41c.96,1.37,2.05,2.68,2.85,4.14.55,1,1.04,2.06.74,3.41-.83,3.81-2.14,7.47-3.07,11.25-.1.41-.27.79-.9,1.33-.04-6.82.2-13.39-.04-19.96.14-.06.28-.11.42-.17Z"/>
  <path class="st4" d="M75.48,135.71c-.92-3.77-1.21-6.95,1.48-9.85,1.47-1.59,2.94-3.16,4.75-4.98.16,1.96.28,3.48.41,5,.03.37-.05.66-.34.94-2.51,2.51-4.44,5.45-6.3,8.89Z"/>
  <path class="st4" d="M33.57,56.55c3.5-3.92,7.87-6.21,12.86-7.42.66-.16,1.05.02,1.33.67.25.56.11.89-.32,1.27-3.99,3.42-8.56,5.38-13.86,5.49Z"/>
  <path class="st4" d="M81.41,131.78c.33.01.77-1.22.93-.07.36,2.61,1,5.27-.61,7.76-1.26,1.95-1.81,4.23-2.79,6.4-1.88-2.81-2.12-4.61-1.06-7.49.07-.19.06-.42.08-.63,1.01-2.07,2.19-4.05,3.45-5.97Z"/>
  <path class="st5" d="M61.85,4.9c-.19.47-.24.76-.4.97-.59.79-.01,2.23-1.02,2.59-.87.31-1.96-.04-2.95-.06-1.42-.03-2.84-.03-4.26-.05-2.04-.03-2.99-1.66-2.1-3.53.27-.57.71-.62,1.22-.62,3.12-.02,6.24-.06,9.5.7Z"/>
  <path class="st2" d="M61.33,139c-.9-.15-1.2-.74-1.59-1.22-1.27-1.6-2.19-3.47-3.8-4.8-.33-.28-.44-.7-.45-1.14-.05-2.12-.12-4.24-.17-6.36-.01-.42-.04-.9.51-1.01.37-.07.65.17.86.49.39.59.98,1.11,1.18,1.75.88,2.81,2.65,5.32,2.88,8.37.1,1.29.62,2.54.59,3.93Z"/>
  <path class="st7" d="M53.24,43.07c1.65.01,3.06.57,4.15,1.83,1.85,2.13,1.19,5.09-1.43,6.13-2.01.79-3.92.49-5.55-.98-1.39-1.24-1.75-3.01-1.04-4.65.76-1.75,1.83-2.38,3.87-2.33ZM53.27,44.52c-1.22-.03-2.11,1.05-2.17,2.6-.05,1.49.8,2.34,2.33,2.33,1.68,0,3.1-1.31,3.1-2.83,0-1.39-1.02-2.05-3.26-2.1Z"/>
  <path class="st4" d="M61.13,65.1c-3.3-3.03-5.2-6.26-5.92-10.18-.15-.8.03-1.08.83-1.32,2.38-.73,2.49-.77,3.49,1.5,1.33,3.02,1.76,6.21,1.6,10Z"/>
  <path class="st5" d="M97.67,38.22c-.82.08-1.53.08-2.2.23-.61.13-1.2.42-2,.72-.7-2.81-1.51-5.56-2.63-8.21-.22-.52-.12-.96.4-1.27.55-.32,1.08-.68,1.64-.97.5-.26.96-.22,1.24.35,1.44,2.92,2.82,5.85,3.55,9.15Z"/>
  <path class="st2" d="M58.79,148.42c.12.71.37,1.4.91,1.87,2.13,1.86,2.04,4.19,1.45,6.62-.11.44-.04.98-.46,1.28-.4.08-.57-.16-.73-.39-.29-.4-.49-.87-.83-1.22-2.88-2.95-3.5-6.59-3.29-10.5.03-.49,0-.99-.02-1.48.87.25,1.35.95,1.8,1.64.45.69.5,1.6,1.16,2.19Z"/>
  <path class="st4" d="M75.28,125.61c.03-3.69,1.22-6.99,2.82-10.17.25-.5.49-1.35,1.36-.97.73.32,1.73.36,1.85,1.48.11,1.05.25,2.1.38,3.16.04.36,0,.69-.32.94-2.19,1.64-4.14,3.56-6.09,5.55Z"/>
  <path class="st5" d="M92.62,26.47c-1.2.36-2.22.78-3.07,1.85-1.64-2.88-3.45-5.37-5.5-7.71-.56-.64-.22-1.71.59-2.4.71-.61,1.29-.61,1.97.16,2.2,2.48,4.27,5.04,6.01,8.1Z"/>
  <path class="st5" d="M74.18,9.13c-.68.89-1.57,1.56-1.45,2.94-2.84-1.18-5.43-2.05-8.06-2.82-1.53-.45-1.86-1.25-1.44-2.54.4-1.23.75-1.47,2.04-1.1,3.05.88,6.02,1.96,8.91,3.51Z"/>
  <path class="st4" d="M84.33,135.73c1.1,1.27,2.28,2.48,3.28,3.84.98,1.34,1.4,2.91,1.02,4.6-.28,1.24-.54,2.47-.84,3.85-1.67-1.21-2.19-3.22-3.68-4.42-.13-.11-.16-.39-.17-.59-.01-2.37,0-4.75,0-7.12.13-.05.27-.1.4-.15Z"/>
  <path class="st4" d="M44.68,31.28c3.14,2.42,5.55,5.4,7.09,9.05.39.92-.11,1.27-.77,1.65-.58.34-.98.55-1.63-.07-3.03-2.88-4.53-6.42-4.7-10.63Z"/>
  <path class="st2" d="M54.59,153.24c.24,3.29-.04,6.03-.03,8.78,0,.54-.16.97-.61,1.27-.72.48-1.14,1.23-1.75,2.07-.92-1.8-1.57-3.54-2.21-5.28-.25-.67-.11-1.25.34-1.77,1.3-1.55,2.61-3.1,4.26-5.06Z"/>
  <path class="st4" d="M88.91,127.16c-1.37-1.83-3.24-2.69-5.01-3.67-.82-.45-1.05-1.07-1.08-1.89-.05-1.27-.11-2.54-.17-3.94,1.82.13,2.86,1.49,4.21,2.26,1.68.96,1.82,2.59,1.81,4.25,0,.91.52,1.75.25,2.99Z"/>
  <path class="st4" d="M60.08,51.46c.33-.67.63-1.23.87-1.81.83-2.04.84-2.11,2.98-1.46,2.7.81,5.17,2.05,7.44,4-3.06.41-7.98.09-11.29-.73Z"/>
  <path class="st4" d="M82.62,157.72c-.65-2.6-1.72-5.06-2.72-7.53-.47-1.17,0-2.24.2-3.33.43-2.29,1.1-4.51,2.52-6.53v17.39Z"/>
  <path class="st4" d="M34.41,41.78c4.93-.07,9.33.18,13.3,3.34-4.06,1.61-9.54.22-13.3-3.34Z"/>
  <path class="st5" d="M84.02,15.99c-.97.6-1.82,1.12-2.25,2.21-2.12-1.68-4.07-3.3-6.28-4.52-.95-.53-.87-1.18-.46-1.93.49-.91,1.5-1.33,2.28-.88,1.1.64,2.15,1.36,3.17,2.11,1.2.87,2.4,1.74,3.54,3.02Z"/>
  <path class="st4" d="M30.98,144.18c-.12-4.72.06-9.44-.37-14.6,1.73,2.12,2.51,4.21,3.3,6.29.19.5-.09.97-.2,1.45-.53,2.36-1.35,4.61-2.23,6.85-.16,0-.33,0-.5,0Z"/>
  <path class="st4" d="M84.08,145.33c3.97,5.02,3.71,7.05.22,13.44.23-4.68-.62-8.97-.22-13.44Z"/>
  <path class="st4" d="M30.76,110.83c-.42-.41-.63-.89-.64-1.5-.02-1.2-.12-2.4-.18-3.6-.02-.4-.18-.89.33-1.11.62-.26.87.26,1.17.65.13.17.24.35.35.53,1.97,3.23,3.05,6.74,3.54,10.93-.46-.66-.65-.93-.84-1.2-.55-2.12-1.78-3.7-3.74-4.7Z"/>
  <path class="st4" d="M30.71,123.91c2.23,2.86,5.3,5.41,3.54,10.02-1.17-3.53-4.57-5.91-3.54-10.02Z"/>
  <path class="st2" d="M49.38,157.32c-.92-1.31-.72-2.27-.06-3.35,1.31-2.15,3.18-3.74,5.12-5.72.36,1.95.53,3.36-1.15,4.68-1.47,1.15-2.54,2.81-3.92,4.4Z"/>
  <path class="st7" d="M27.47,97.43c1.57,2.08,2.65,2.14,4.53.27,1.03,1.39,1.01,2.5-.06,3.45-1.21,1.08-3.49.99-4.69-.18-1.02-.99-.96-1.93.22-3.53Z"/>
  <path class="st4" d="M27.79,118.61c.5-.16,1.22-.92,1.17.44-.02.64-.02,1.19-.61,1.7-1.07.92-1.99,2.02-2.99,3.02-.96.95-1.94,1.86-3.04,2.9-.44-.88-.72-1.66-.18-2.54,1.86-1.86,3.44-4.01,5.65-5.51Z"/>
  <path class="st7" d="M85.27,109.13c.24,1.85-.15,2.72-1.38,3.29-1.46.67-3.62.17-4.89-1.12-1.14-1.17-1.27-2.15-.5-3.78.59,3.06,2.39,3.96,6.77,1.61Z"/>
  <path class="st4" d="M77.17,137.75c-.19.29-.39.58-.59.89-.73-2.21,1.89-7.04,5.55-10.23.27,1.27-1.14,1.75-1.21,2.79-1.66,1.95-2.92,4.13-3.75,6.55Z"/>
  <path class="st8" d="M81.94,106.17c.22.03.44.02.63.1.71.29,1.69.55,1.69,1.38,0,.76-.97.88-1.62,1.11-.13.05-.27.07-.41.11-.8.26-1.55.24-2.1-.48-.26-.34-.36-.77-.16-1.2.4-.84,1.23-.83,1.96-1.02Z"/>
  <path class="st2" d="M54.23,172.68c-.53-1.71-1.19-3.39-1.55-5.13-.25-1.2.83-1.89,1.75-3v8.06c-.07.02-.13.05-.2.07Z"/>
  <path class="st4" d="M86.78,118.47c-1.05-.84-2.22-1.25-3.41-1.64-.53-.17-1.11-.44-1.02-1.15.09-.71.74-.48,1.17-.58,1.96-.47,3.11.69,3.26,3.37Z"/>
  <path class="st7" d="M56.72,118.52c.69,1.53.59,2.24-.42,2.87-1.28.79-2.42.45-3.59-1.24,1.71.15,3.52.58,4.05-1.66l-.04.03Z"/>
  <path class="st6" d="M27.79,118.61c-2.21,1.5-3.79,3.65-5.65,5.51-.15-.29-.29-.58-.44-.87.88-.3,1.25-1.1,1.77-1.76,1.06-1.34,2.26-2.53,3.79-3.34.18.15.36.3.54.45Z"/>
  <path class="st6" d="M77.17,137.75c.82-2.43,2.09-4.6,3.75-6.55.16.19.33.39.49.58-1.26,1.92-2.44,3.9-3.45,5.97-.26,0-.53,0-.79,0Z"/>
  <path class="st0" d="M30.76,110.83c1.95,1.01,3.18,2.58,3.74,4.7-.47.16-.41.58-.48.94-.5-.45-.57-1.11-.85-1.67-.67-1.35-1.53-2.53-2.97-3.18.19-.26.37-.53.56-.79Z"/>
  <path class="st6" d="M58.79,148.42c-.66-.59-.71-1.5-1.16-2.19-.45-.69-.93-1.39-1.8-1.64.15-.31.3-.62.45-.93,1.78,1.11,2.63,2.9,3.39,4.74-.29,0-.59,0-.88.01Z"/>
  <path class="st3" d="M56.76,118.49c-.74-.11-1.28.53-1.98.55-.49.02-1.05.11-1.11-.59-.06-.66.32-1.05.98-1.09.93-.05,1.55.48,2.07,1.16,0,0,.04-.04.04-.04Z"/>
  <path class="st8" d="M29.53,97.9c-.28-.07-.58-.22-.45-.54.14-.33.5-.53.88-.45.14.03.32.31.31.46-.04.41-.31.6-.74.53Z"/>
  <path class="st1" d="M30.98,144.18c.17,0,.33,0,.5,0,.02.37-.05.76-.5.64-.32-.09-.24-.42,0-.63Z"/>
  <path class="st4" d="M48.56,141.57s-.02.11-.05.15c-.01.02-.07.01-.1.02.06-.04.13-.09.19-.13,0,0-.03-.04-.03-.04Z"/>
  <path class="st8" d="M14.45,25.15c.06-.1.13-.21.19-.31.06.2.14.41-.22.27,0,0,.03.04.03.04Z"/>
  <path class="st6" d="M53.27,44.52c2.25.05,3.27.71,3.26,2.1,0,1.52-1.42,2.82-3.1,2.83-1.53,0-2.38-.84-2.33-2.33.05-1.55.95-2.63,2.17-2.6ZM53.28,47.72c.69.02,1.36-.47,1.35-1.08,0-.58-.15-1.16-.87-1.27-.68-.1-1.28.52-1.31,1.36-.02.58.2.96.83.98Z"/>
  <path class="st3" d="M53.28,47.72c-.63-.03-.86-.4-.83-.98.03-.84.63-1.46,1.31-1.36.72.11.86.69.87,1.27,0,.61-.66,1.09-1.35,1.08Z"/>
</svg>