<?xml version="1.0" encoding="UTF-8"?>
<svg xmlns="http://www.w3.org/2000/svg" version="1.1" viewBox="0 0 300 200">
  <!-- Generator: Adobe Illustrator 29.8.5, SVG Export Plug-In . SVG Version: 2.1.1 Build 2)  -->
  <defs>
    <style>
      .st0 {
        fill: #40629c;
      }

      .st0, .st1, .st2, .st3, .st4, .st5, .st6, .st7, .st8, .st9, .st10, .st11 {
        stroke: #000;
      }

      .st0, .st2, .st3, .st5, .st6, .st9, .st11 {
        stroke-miterlimit: 10;
      }

      .st0, .st2, .st8 {
        stroke-width: 1.5px;
      }

      .st12, .st13 {
        font-size: 16.48px;
      }

      .st12, .st13, .st14, .st15 {
        font-family: Barlow-Bold, Barlow;
        font-weight: 700;
      }

      .st1 {
        fill: #c47b5f;
      }

      .st1, .st4, .st7, .st8, .st10 {
        stroke-linecap: round;
        stroke-linejoin: round;
      }

      .st1, .st7, .st10 {
        stroke-width: .5px;
      }

      .st2 {
        fill: #52717a;
      }

      .st13 {
        letter-spacing: .2em;
      }

      .st16 {
        isolation: isolate;
      }

      .st17 {
        fill: #636363;
      }

      .st3 {
        fill: #f4ef9e;
        stroke-width: 1.39px;
      }

      .st18 {
        mix-blend-mode: color-dodge;
      }

      .st14 {
        font-size: 12.89px;
        letter-spacing: .2em;
      }

      .st4 {
        stroke-width: 1.2px;
      }

      .st4, .st5 {
        fill: none;
      }

      .st5, .st11 {
        stroke-width: 1.2px;
      }

      .st15 {
        font-size: 6.85px;
        letter-spacing: .2em;
      }

      .st19 {
        fill: #cfcfcf;
        mix-blend-mode: color-burn;
      }

      .st6 {
        fill: #f9ebbf;
      }

      .st7 {
        fill: #78c0e3;
      }

      .st8 {
        fill: #70c5ab;
      }

      .st9 {
        fill: #fcf8ea;
      }

      .st10 {
        fill: #f2e37e;
      }

      .st11 {
        fill: #d2d2d2;
      }
    </style>
  </defs>
  <g class="st16">
    <g id="Capa_1">
      <g>
        <path class="st2" d="M254.97,70.48L113.57,13.64l-15.64-6.29c-3.61-1.45-7.74.31-9.18,3.92l-38.54,95.86c-1.45,3.6.32,7.73,3.92,9.18l157.05,63.12c1.6.64,3.28.66,4.8.17,1.93-.63,3.58-2.07,4.39-4.08l38.52-95.86c1.45-3.6-.31-7.74-3.92-9.18Z"/>
        <path class="st19" d="M215.97,179.6c-1.52.49-3.21.47-4.8-.17L54.12,116.32c-3.6-1.45-5.37-5.59-3.92-9.18L88.74,11.27c1.44-3.6,5.57-5.36,9.18-3.92l15.64,6.29c-5.08,10.48-9.83,21.13-12.97,32.32-3.9,13.95-5.19,28.93-1.3,42.88,5.84,20.92,22.44,37.04,39.83,50.03,23.32,17.41,49.34,31.2,76.83,40.74Z"/>
        <polygon class="st9" points="102.73 23.56 92.92 26.94 69.35 85.79 221.11 146.57 244.68 87.73 241.08 78.76 102.73 23.56"/>
        <rect class="st1" x="80.31" y="71.34" width="163.49" height="5.69" transform="translate(39.2 -54.94) rotate(21.83)"/>
        <rect class="st10" x="78.19" y="76.62" width="163.49" height="5.69" transform="translate(41.02 -53.77) rotate(21.83)"/>
        <rect class="st7" x="76.07" y="81.91" width="163.49" height="5.69" transform="translate(42.83 -52.6) rotate(21.83)"/>
        <text class="st12" transform="translate(203.9 121.91) rotate(21.83)"><tspan x="0" y="0">60</tspan></text>
        <path class="st4" d="M72.49,123.77l14.49-21.12c.97-1.41,2.79-1.96,4.38-1.32l102.79,41.32c1.59.64,2.52,2.29,2.24,3.98l-4.16,25.27"/>
        <path class="st0" d="M97.05,126.35c-.99,2.47-3.8,3.67-6.27,2.67-2.47-.99-3.67-3.8-2.67-6.27.99-2.47,3.8-3.67,6.27-2.67,2.47.99,3.67,3.8,2.67,6.27Z"/>
        <path class="st0" d="M114.57,130.87c-.7,1.75-2.69,2.59-4.43,1.89-1.75-.7-2.59-2.69-1.89-4.43.7-1.75,2.69-2.59,4.43-1.89,1.75.7,2.59,2.69,1.89,4.43Z"/>
        <path class="st0" d="M99.94,18.56c-.7,1.75-2.69,2.59-4.43,1.89-1.75-.7-2.59-2.69-1.89-4.43.7-1.75,2.69-2.59,4.43-1.89,1.75.7,2.59,2.69,1.89,4.43Z"/>
        <path class="st0" d="M252.32,79.81c-.7,1.75-2.69,2.59-4.43,1.89-1.75-.7-2.59-2.69-1.89-4.43.7-1.75,2.69-2.59,4.43-1.89,1.75.7,2.59,2.69,1.89,4.43Z"/>
        <path class="st0" d="M163.4,150.49c-.7,1.75-2.69,2.59-4.43,1.89-1.75-.7-2.59-2.69-1.89-4.43.7-1.75,2.69-2.59,4.43-1.89,1.75.7,2.59,2.69,1.89,4.43Z"/>
        <path class="st0" d="M181.11,160.14c-.99,2.47-3.8,3.67-6.27,2.67-2.47-.99-3.67-3.8-2.67-6.27.99-2.47,3.8-3.67,6.27-2.67,2.47.99,3.67,3.8,2.67,6.27Z"/>
        <path class="st8" d="M187.25,113.26l-69.61-27.88c-7.83-3.14-11.63-12.03-8.5-19.85h0c3.14-7.83,12.03-11.63,19.85-8.5l69.61,27.88c7.83,3.14,11.63,12.03,8.5,19.85h0c-3.14,7.83-12.03,11.63-19.85,8.5Z"/>
        <circle class="st6" cx="122.9" cy="71.03" r="9.88" transform="translate(-11.46 116.83) rotate(-48.85)"/>
        <circle class="st6" cx="192.54" cy="98.93" r="9.88" transform="translate(13.36 220.38) rotate(-61.32)"/>
        <rect class="st11" x="148.21" y="63.69" width="20.08" height="40.75" rx="1.43" ry="1.43" transform="translate(21.37 199.71) rotate(-68.17)"/>
        <text class="st13" transform="translate(84.56 74.11) rotate(21.83)"><tspan x="0" y="0">A</tspan></text>
        <text class="st15" transform="translate(78.63 80.48) rotate(21.83)"><tspan x="0" y="0">SIDE</tspan></text>
        <text class="st15" transform="translate(202.7 130.18) rotate(21.83)"><tspan x="0" y="0">MIN</tspan></text>
        <text class="st14" transform="translate(117.33 100.21) rotate(21.83)"><tspan x="0" y="0">STEREO</tspan></text>
        <path d="M158.36,84.55c-1.29,3.22-3.08,6.03-5.19,8.3l-16.25-6.51c-.73-.29-1.09-1.13-.8-1.86l6.4-15.99c.29-.73,1.13-1.09,1.86-.8l15.94,6.38c.07,3.35-.56,6.93-1.97,10.47Z"/>
        <path d="M180.37,83.65l-6.4,15.99c-.29.73-1.13,1.09-1.86.8l-4.75-1.9c-.77-3.56-.53-7.39.92-11.02,1.29-3.21,3.37-5.89,5.92-7.87l5.37,2.15c.73.29,1.09,1.13.8,1.86Z"/>
        <line class="st5" x1="107.24" y1="33.61" x2="226.53" y2="81.39"/>
        <line class="st5" x1="104.58" y1="40.25" x2="223.87" y2="88.03"/>
        <g class="st18">
          <path class="st17" d="M247.07,96.69c-7.64,19.07-15.28,38.15-22.92,57.22-2.16,5.38-4.31,10.77-6.47,16.15-.6,1.49,1.82,2.14,2.41.66,7.64-19.07,15.28-38.15,22.92-57.22,2.16-5.38,4.31-10.77,6.47-16.15.6-1.49-1.82-2.14-2.41-.66h0Z"/>
        </g>
        <g class="st18">
          <path class="st17" d="M217.12,175.43c1.61,0,1.61-2.5,0-2.5s-1.61,2.5,0,2.5h0Z"/>
        </g>
        <g class="st18">
          <path class="st17" d="M194.06,143c-27.15-10.87-54.29-21.75-81.44-32.62-7.71-3.09-15.42-6.18-23.14-9.27-1.49-.6-2.14,1.82-.66,2.41,27.15,10.87,54.29,21.75,81.44,32.62,7.71,3.09,15.42,6.18,23.14,9.27,1.49.6,2.14-1.82.66-2.41h0Z"/>
        </g>
        <g class="st18">
          <path class="st17" d="M198.66,85.23c-18.81-7.53-37.62-15.07-56.43-22.6-5.4-2.16-10.79-4.32-16.19-6.48-1.49-.6-2.14,1.82-.66,2.41,18.81,7.53,37.62,15.07,56.43,22.6,5.4,2.16,10.79,4.32,16.19,6.48,1.49.6,2.14-1.82.66-2.41h0Z"/>
        </g>
        <g class="st18">
          <path class="st17" d="M255.25,70.71c-20.85-8.35-41.7-16.7-62.55-25.05-20.85-8.35-41.7-16.7-62.55-25.05-11.74-4.7-23.47-9.4-35.21-14.1-1.49-.6-2.14,1.82-.66,2.41,20.85,8.35,41.7,16.7,62.55,25.05s41.7,16.7,62.55,25.05c11.74,4.7,23.47,9.4,35.21,14.1,1.49.6,2.14-1.82.66-2.41h0Z"/>
        </g>
        <g class="st18">
          <path class="st17" d="M240.38,76.4c-17.7-7.09-35.4-14.18-53.11-21.27-17.62-7.06-35.25-14.12-52.87-21.18-9.97-3.99-19.94-7.99-29.92-11.98-1.49-.6-2.14,1.82-.66,2.41,17.7,7.09,35.4,14.18,53.11,21.27,17.62,7.06,35.25,14.12,52.87,21.18,9.97,3.99,19.94,7.99,29.92,11.98,1.49.6,2.14-1.82.66-2.41h0Z"/>
        </g>
        <g class="st18">
          <path class="st17" d="M177.16,157.12c.05.03.1.06.16.1.17.11.01.03-.05-.04.08.09.18.16.27.25.04.04.08.09.12.14.1.11-.15-.23-.04-.05.06.11.13.21.18.32.02.04.11.24.03.05s0,.02.01.06c.04.12.06.23.09.35.05.22-.02-.24-.01-.08,0,.06,0,.12.01.18s0,.12,0,.18c0,.11-.06.24.02-.08-.03.12-.04.23-.08.35-.01.05-.03.09-.05.14-.08.24.13-.26.01-.04-.06.11-.11.21-.18.31-.03.04-.06.08-.08.12.15-.26.11-.14.04-.06-.08.09-.16.17-.25.25-.15.13-.02,0,.06-.04-.05.03-.1.07-.15.1-.1.07-.21.12-.31.17-.13.07.28-.09.07-.03-.07.02-.14.04-.2.06-.63.18-1.08.89-.87,1.54s.86,1.06,1.54.87c1.44-.4,2.65-1.66,2.87-3.16.25-1.63-.5-3.29-1.94-4.12-.57-.33-1.39-.15-1.71.45s-.16,1.36.45,1.71h0Z"/>
        </g>
        <g class="st18">
          <path class="st17" d="M160.04,148.64s.07.05.1.07l-.25-.2c.13.1.25.22.35.35l-.2-.25c.12.16.21.32.29.5l-.13-.3c.09.21.14.42.18.64l-.04-.33c.03.22.03.44,0,.67l.04-.33c-.03.19-.08.38-.15.56l.13-.3c-.07.15-.15.3-.25.43l.2-.25-.03.03c-.21.27-.37.52-.37.88,0,.31.14.67.37.88s.55.38.88.37c.31-.01.69-.11.88-.37.32-.42.59-.85.71-1.37s.12-1.02.04-1.56c-.15-.95-.72-1.75-1.49-2.3-.25-.18-.68-.21-.96-.13s-.6.3-.75.57c-.15.29-.23.64-.13.96s.3.55.57.75h0Z"/>
        </g>
        <g class="st18">
          <path class="st17" d="M110.9,128.43c.19.03.36.08.54.16l-.3-.13c.17.08.33.17.48.28l-.25-.2c.16.13.31.27.44.43l-.2-.25c.13.16.23.34.31.53l-.13-.3c.07.18.12.36.15.56l-.04-.33c.02.2.02.39,0,.58l.04-.33c-.03.21-.08.42-.16.62l.13-.3c-.08.18-.17.35-.29.51l.2-.25c-.06.08-.12.15-.19.22-.46.47-.5,1.31,0,1.77s1.28.5,1.77,0c.89-.92,1.3-2.37.86-3.6s-1.43-2.16-2.68-2.38c-.34-.06-.66-.05-.96.13-.26.15-.51.45-.57.75-.14.61.18,1.42.87,1.54h0Z"/>
        </g>
        <g class="st18">
          <path class="st17" d="M92.49,122.04c.09.03.19.06.28.1-.16-.06-.11-.04.01.02.16.08.31.18.46.29-.17-.13-.03-.02.05.06.06.06.12.11.18.17s.11.13.16.18c-.19-.2,0,0,.04.06.09.14.17.28.25.43.15.28-.07-.23.03.06.03.08.05.16.08.23s.04.16.06.24c.01.05.02.1.03.14.02.09.01.06-.01-.09.06.13.02.41,0,.54-.02.28.01,0,0,0,0,0-.06.27-.06.28-.02.08-.04.15-.07.23-.05.14-.07.16,0,.02-.08.16-.16.32-.25.47-.04.07-.09.13-.14.2.16-.24-.01,0-.05.05-.11.12-.23.23-.35.34-.2.19.16-.1-.05.04-.08.05-.16.11-.24.16-.07.04-.14.08-.21.11-.13.07-.16.05-.01,0-.19.06-.37.12-.56.15-.64.13-1.07.93-.87,1.54.22.68.85,1.01,1.54.87,2.11-.42,3.68-2.36,3.83-4.47s-1.42-4.22-3.46-4.86c-.62-.2-1.39.23-1.54.87-.15.68.2,1.33.87,1.54h0Z"/>
        </g>
        <g class="st18">
          <path class="st17" d="M248.81,77.17s.21.16.05.02-.02-.02,0,.01c.08.07.15.14.23.22.03.03.06.07.09.11-.21-.19-.11-.15-.05-.06.06.09.11.18.16.27.02.04.04.08.06.12.1.19-.08-.22-.03-.07.03.1.07.2.09.3.01.05.02.09.03.14.01.05.04.26.01.04-.03-.21,0-.04,0,0,0,.06,0,.12,0,.17,0,.09-.01.19-.02.28.02-.39,0-.07-.03.04-.03.1-.07.2-.1.3.08-.3.07-.17.03-.08-.02.04-.04.08-.07.12-.05.09-.11.18-.17.27-.12.18.15-.17.05-.06-.03.03-.06.07-.09.1-.07.08-.15.15-.23.22-.13.11.05-.05.09-.07-.06.03-.12.08-.17.12-.56.34-.82,1.13-.45,1.71s1.12.82,1.71.45c1.17-.73,1.93-2.01,1.95-3.4s-.75-2.68-1.89-3.43c-.55-.36-1.41-.13-1.71.45-.33.62-.14,1.33.45,1.71h0Z"/>
        </g>
        <g class="st18">
          <path class="st17" d="M96.35,16.72c.11,0,.23,0,.34.02l-.33-.04c.17.03.33.07.49.14l-.3-.13c.18.08.34.17.49.28l-.25-.2c.15.12.28.25.4.4l-.2-.25c.12.15.21.31.28.49l-.13-.3c.05.14.09.28.12.43l-.04-.33c.02.18.02.36,0,.54l.04-.33c-.03.18-.07.36-.14.53l.13-.3c-.08.19-.18.36-.3.52l.2-.25c-.11.14-.24.27-.39.38l.25-.2c-.13.1-.27.18-.42.25l.3-.13-.05.02c-.31.13-.57.27-.75.57-.16.27-.22.66-.13.96s.29.59.57.75.66.25.96.13c.45-.18.79-.37,1.15-.69.25-.23.47-.51.64-.81.4-.71.52-1.51.38-2.31-.26-1.53-1.81-2.69-3.33-2.65-.65.02-1.28.56-1.25,1.25s.55,1.27,1.25,1.25h0Z"/>
        </g>
        <g class="st18">
          <path class="st17" d="M87.18,43.59c9.95,3.99,19.9,7.97,29.85,11.96,1.49.6,2.14-1.82.66-2.41-9.95-3.99-19.9-7.97-29.85-11.96-1.49-.6-2.14,1.82-.66,2.41h0Z"/>
        </g>
        <g class="st18">
          <path class="st17" d="M85.9,50.05c7.75,3.1,15.49,6.21,23.24,9.31,1.49.6,2.14-1.82.66-2.41-7.75-3.1-15.49-6.21-23.24-9.31-1.49-.6-2.14,1.82-.66,2.41h0Z"/>
        </g>
        <g class="st18">
          <path class="st17" d="M83.43,55.73c7.11,2.85,14.21,5.69,21.32,8.54,1.49.6,2.14-1.82.66-2.41-7.11-2.85-14.22-5.69-21.32-8.54-1.49-.6-2.14,1.82-.66,2.41h0Z"/>
        </g>
        <g class="st18">
          <path class="st17" d="M209.1,105.56c7.77,3.11,15.55,6.23,23.32,9.34,1.49.6,2.14-1.82.66-2.41-7.77-3.11-15.55-6.23-23.32-9.34-1.49-.6-2.14,1.82-.66,2.41h0Z"/>
        </g>
        <g class="st18">
          <path class="st17" d="M210.64,100.21c7.77,3.11,15.55,6.23,23.32,9.34,1.49.6,2.14-1.82.66-2.41-7.77-3.11-15.55-6.23-23.32-9.34-1.49-.6-2.14,1.82-.66,2.41h0Z"/>
        </g>
        <g class="st18">
          <path class="st17" d="M207.04,91.3c9.95,3.99,19.9,7.97,29.85,11.96,1.49.6,2.14-1.82.66-2.41-9.95-3.99-19.9-7.97-29.85-11.96-1.49-.6-2.14,1.82-.66,2.41h0Z"/>
        </g>
        <path class="st3" d="M45.99,92.95c6.31,1.84,8.73,4.27,10.57,10.57.38,1.29,2.21,1.29,2.59,0,1.84-6.31,4.27-8.73,10.57-10.57,1.29-.38,1.29-2.21,0-2.59-6.31-1.84-8.73-4.27-10.57-10.57-.38-1.29-2.21-1.29-2.59,0-1.84,6.31-4.27,8.73-10.57,10.57-1.29.38-1.29,2.21,0,2.59Z"/>
        <path class="st3" d="M205.25,181.24c6.31,1.84,8.73,4.27,10.57,10.57.38,1.29,2.21,1.29,2.59,0,1.84-6.31,4.27-8.73,10.57-10.57,1.29-.38,1.29-2.21,0-2.59-6.31-1.84-8.73-4.27-10.57-10.57-.38-1.29-2.21-1.29-2.59,0-1.84,6.31-4.27,8.73-10.57,10.57-1.29.38-1.29,2.21,0,2.59Z"/>
        <path class="st3" d="M41.49,62.04c4.36,1.27,6.04,2.95,7.31,7.31.26.89,1.53.89,1.79,0,1.27-4.36,2.95-6.04,7.31-7.31.89-.26.89-1.53,0-1.79-4.36-1.27-6.04-2.95-7.31-7.31-.26-.89-1.53-.89-1.79,0-1.27,4.36-2.95,6.04-7.31,7.31-.89.26-.89,1.53,0,1.79Z"/>
        <path class="st3" d="M231.84,166.05c4.36,1.27,6.04,2.95,7.31,7.31.26.89,1.53.89,1.79,0,1.27-4.36,2.95-6.04,7.31-7.31.89-.26.89-1.53,0-1.79-4.36-1.27-6.04-2.95-7.31-7.31-.26-.89-1.53-.89-1.79,0-1.27,4.36-2.95,6.04-7.31,7.31-.89.26-.89,1.53,0,1.79Z"/>
      </g>
    </g>
  </g>
</svg>